<?xml version="1.0" encoding="utf-8"?>
<!-- Generator: Adobe Illustrator 16.0.0, SVG Export Plug-In . SVG Version: 6.00 Build 0)  -->
<!DOCTYPE svg PUBLIC "-//W3C//DTD SVG 1.1//EN" "http://www.w3.org/Graphics/SVG/1.1/DTD/svg11.dtd">
<svg version="1.1" id="Layer_1" xmlns:xml="http://www.w3.org/XML/1998/namespace"
	 xmlns="http://www.w3.org/2000/svg" xmlns:xlink="http://www.w3.org/1999/xlink" x="0px" y="0px" width="842px" height="595px"
	 viewBox="0 0 842 595" enable-background="new 0 0 842 595" xml:space="preserve">
<g id="workspace" transform="matrix(1 0 0 1 0 0)">
</g>
<g>
	<path fill="#121310" stroke="#000000" stroke-miterlimit="3" d="M379.017,284.101l-3.228-176.592l3.228-2.28l123.469,22.93
		l14.111,21.754v161.369l-3.047,2.406L379.017,284.101z"/>
	<path fill="#FFFFFF" stroke="#000000" stroke-miterlimit="3" d="M468.642,172.549l-69.377-11.771l0.168-48.679l2.617-2.585
		l69.518,12.618l-3.004,2.714"/>
	<path fill="#323330" stroke="#000000" stroke-miterlimit="3" d="M416.181,120.265v38.047l-10.584-1.744v-38.11L416.181,120.265z"/>
	<path fill="#323330" stroke="#000000" stroke-miterlimit="3" d="M468.563,124.76l30.651,6.045l14.11,21.754v161.095
		l-137.579-26.907V107.875l23.687,4.224l-0.168,48.679v0.012l69.377,11.76L468.563,124.76z"/>
	<path fill="#FFFFFF" stroke="#000000" stroke-miterlimit="3" d="M399.776,112.271l68.443,12.489"/>
	<path fill="#FFFFFF" stroke="#000000" stroke-miterlimit="3" d="M499.215,130.805l2.893-2.438"/>
	<path fill="#FFFFFF" stroke="#000000" stroke-miterlimit="3" d="M513.325,152.559l3.078-2.593"/>
	<polygon fill="#D82A20" stroke="#000000" stroke-miterlimit="3" points="508.269,306.457 380.269,282.458 380.269,174.065 
		508.269,198.065 	"/>
</g>
<g>
	<path fill="#121310" stroke="#000000" stroke-miterlimit="3" d="M359.723,301.049l-3.228-176.592l3.228-2.28l123.469,22.93
		l14.111,21.754v161.37l-3.047,2.406L359.723,301.049z"/>
	<path fill="#FFFFFF" stroke="#000000" stroke-miterlimit="3" d="M449.348,189.498l-69.377-11.771l0.168-48.679l2.617-2.585
		l69.518,12.618l-3.004,2.714"/>
	<path fill="#323330" stroke="#000000" stroke-miterlimit="3" d="M396.887,137.213v38.047l-10.584-1.744v-38.11L396.887,137.213z"/>
	<path fill="#323330" stroke="#000000" stroke-miterlimit="3" d="M449.27,141.708l30.651,6.045l14.11,21.754v161.096
		l-137.579-26.908V124.824l23.687,4.224l-0.168,48.679v0.012l69.377,11.76L449.27,141.708z"/>
	<path fill="#FFFFFF" stroke="#000000" stroke-miterlimit="3" d="M380.482,129.219l68.443,12.489"/>
	<path fill="#FFFFFF" stroke="#000000" stroke-miterlimit="3" d="M479.921,147.753l2.893-2.438"/>
	<path fill="#FFFFFF" stroke="#000000" stroke-miterlimit="3" d="M494.031,169.507l3.078-2.593"/>
	<polygon fill="#E06528" stroke="#000000" stroke-miterlimit="3" points="488.975,323.406 360.975,299.406 360.975,191.013 
		488.975,215.013 	"/>
</g>
<g>
	<path fill="#121310" stroke="#000000" stroke-miterlimit="3" d="M340.543,319.553l-3.228-176.592l3.228-2.28l123.469,22.93
		l14.111,21.754v161.37l-3.047,2.406L340.543,319.553z"/>
	<path fill="#FFFFFF" stroke="#000000" stroke-miterlimit="3" d="M430.168,208.001l-69.377-11.771l0.168-48.679l2.617-2.585
		l69.518,12.618l-3.004,2.714"/>
	<path fill="#323330" stroke="#000000" stroke-miterlimit="3" d="M377.707,155.717v38.047l-10.584-1.744v-38.11L377.707,155.717z"/>
	<path fill="#323330" stroke="#000000" stroke-miterlimit="3" d="M430.09,160.212l30.651,6.045l14.11,21.754v161.096
		l-137.579-26.908V143.328l23.687,4.224l-0.168,48.679v0.012l69.377,11.76L430.09,160.212z"/>
	<path fill="#FFFFFF" stroke="#000000" stroke-miterlimit="3" d="M361.303,147.723l68.443,12.489"/>
	<path fill="#FFFFFF" stroke="#000000" stroke-miterlimit="3" d="M460.741,166.257l2.893-2.438"/>
	<path fill="#FFFFFF" stroke="#000000" stroke-miterlimit="3" d="M474.852,188.011l3.078-2.593"/>
	<polygon fill="#E8A040" stroke="#000000" stroke-miterlimit="3" points="469.795,341.91 341.795,317.91 341.795,209.517 
		469.795,233.517 	"/>
</g>
<g>
	<path fill="#121310" stroke="#000000" stroke-miterlimit="3" d="M320.294,338.495l-3.228-176.592l3.228-2.28l123.469,22.93
		l14.111,21.754v161.371l-3.047,2.406L320.294,338.495z"/>
	<path fill="#FFFFFF" stroke="#000000" stroke-miterlimit="3" d="M409.919,226.943l-69.377-11.771l0.168-48.679l2.617-2.585
		l69.518,12.618l-3.004,2.714"/>
	<path fill="#323330" stroke="#000000" stroke-miterlimit="3" d="M357.458,174.659v38.047l-10.584-1.744v-38.11L357.458,174.659z"/>
	<path fill="#323330" stroke="#000000" stroke-miterlimit="3" d="M409.841,179.154l30.651,6.045l14.11,21.754V368.05
		l-137.579-26.908V162.27l23.687,4.224l-0.168,48.679v0.012l69.377,11.76L409.841,179.154z"/>
	<path fill="#FFFFFF" stroke="#000000" stroke-miterlimit="3" d="M341.054,166.665l68.443,12.489"/>
	<path fill="#FFFFFF" stroke="#000000" stroke-miterlimit="3" d="M440.492,185.199l2.893-2.438"/>
	<path fill="#FFFFFF" stroke="#000000" stroke-miterlimit="3" d="M454.603,206.953l3.078-2.593"/>
	<polygon fill="#F0DB4F" stroke="#000000" stroke-miterlimit="3" points="449.546,360.852 321.546,336.852 321.546,228.459 
		449.546,252.459 	"/>
	
		<text transform="matrix(1 0.1944 0 1 362.8408 333.8984)" fill="#323330" font-family="'Neutraface2Text-Bold'" font-size="77.5005">JS</text>
</g>
</svg>
