<?xml version="1.0" encoding="utf-8"?>
<!-- Generator: Adobe Illustrator 16.0.0, SVG Export Plug-In . SVG Version: 6.00 Build 0)  -->
<!DOCTYPE svg PUBLIC "-//W3C//DTD SVG 1.1//EN" "http://www.w3.org/Graphics/SVG/1.1/DTD/svg11.dtd">
<svg version="1.1" id="Layer_1" xmlns:xml="http://www.w3.org/XML/1998/namespace"
	 xmlns="http://www.w3.org/2000/svg" xmlns:xlink="http://www.w3.org/1999/xlink" x="0px" y="0px" width="842px" height="595px"
	 viewBox="0 0 842 595" enable-background="new 0 0 842 595" xml:space="preserve">
<g id="workspace" transform="matrix(1 0 0 1 0 0)">
</g>
<g>
	<path fill="#121310" stroke="#000000" stroke-miterlimit="3" d="M378.017,312.102l-3.228-176.593l3.228-2.28l123.47,22.93
		l14.11,21.754v161.369l-3.047,2.405L378.017,312.102z"/>
	<path fill="#FFFFFF" stroke="#000000" stroke-miterlimit="3" d="M467.642,200.549l-69.377-11.771l0.168-48.679l2.617-2.585
		l69.519,12.618l-3.004,2.714"/>
	<path fill="#323330" stroke="#000000" stroke-miterlimit="3" d="M415.181,148.265v38.047l-10.584-1.744v-38.11L415.181,148.265z"/>
	<path fill="#323330" stroke="#000000" stroke-miterlimit="3" d="M467.562,152.76l30.651,6.045l14.11,21.754v161.095
		l-137.579-26.907V135.875l23.687,4.224l-0.168,48.679v0.012l69.377,11.76L467.562,152.76z"/>
	<path fill="#FFFFFF" stroke="#000000" stroke-miterlimit="3" d="M398.776,140.271l68.442,12.489"/>
	<path fill="#FFFFFF" stroke="#000000" stroke-miterlimit="3" d="M498.215,158.805l2.894-2.438"/>
	<path fill="#FFFFFF" stroke="#000000" stroke-miterlimit="3" d="M512.325,180.559l3.078-2.593"/>
	<polygon fill="#D82A20" stroke="#000000" stroke-miterlimit="3" points="507.269,334.457 379.269,310.458 379.269,202.065 
		507.269,226.065 	"/>
</g>
<g>
	<path fill="#121310" stroke="#000000" stroke-miterlimit="3" d="M359.723,321.049l-3.228-176.592l3.228-2.28l123.47,22.93
		l14.11,21.754v161.37l-3.047,2.406L359.723,321.049z"/>
	<path fill="#FFFFFF" stroke="#000000" stroke-miterlimit="3" d="M449.348,209.498l-69.377-11.771l0.168-48.679l2.617-2.585
		l69.519,12.618l-3.005,2.714"/>
	<path fill="#323330" stroke="#000000" stroke-miterlimit="3" d="M396.887,157.213v38.047l-10.584-1.744v-38.11L396.887,157.213z"/>
	<path fill="#323330" stroke="#000000" stroke-miterlimit="3" d="M449.27,161.708l30.651,6.045l14.11,21.754v161.097
		l-137.579-26.908V144.824l23.687,4.224l-0.168,48.679v0.012l69.377,11.76L449.27,161.708z"/>
	<path fill="#FFFFFF" stroke="#000000" stroke-miterlimit="3" d="M380.482,149.219l68.442,12.489"/>
	<path fill="#FFFFFF" stroke="#000000" stroke-miterlimit="3" d="M479.921,167.753l2.894-2.438"/>
	<path fill="#FFFFFF" stroke="#000000" stroke-miterlimit="3" d="M494.031,189.507l3.078-2.593"/>
	<polygon fill="#E06528" stroke="#000000" stroke-miterlimit="3" points="488.975,343.406 360.975,319.406 360.975,211.013 
		488.975,235.013 	"/>
</g>
<g>
	<path fill="#121310" stroke="#000000" stroke-miterlimit="3" d="M340.543,329.553l-3.228-176.592l3.228-2.28l123.469,22.93
		l14.111,21.754v161.369l-3.047,2.406L340.543,329.553z"/>
	<path fill="#FFFFFF" stroke="#000000" stroke-miterlimit="3" d="M430.168,218.001l-69.377-11.771l0.168-48.679l2.617-2.585
		l69.518,12.618l-3.004,2.714"/>
	<path fill="#323330" stroke="#000000" stroke-miterlimit="3" d="M377.707,165.717v38.047l-10.584-1.744v-38.11L377.707,165.717z"/>
	<path fill="#323330" stroke="#000000" stroke-miterlimit="3" d="M430.09,170.212l30.651,6.045l14.109,21.754v161.097
		l-137.579-26.908V153.328l23.688,4.224l-0.168,48.679v0.012l69.377,11.76L430.09,170.212z"/>
	<path fill="#FFFFFF" stroke="#000000" stroke-miterlimit="3" d="M361.303,157.723l68.443,12.489"/>
	<path fill="#FFFFFF" stroke="#000000" stroke-miterlimit="3" d="M460.741,176.257l2.893-2.438"/>
	<path fill="#FFFFFF" stroke="#000000" stroke-miterlimit="3" d="M474.852,198.011l3.078-2.593"/>
	<polygon fill="#E8A040" stroke="#000000" stroke-miterlimit="3" points="469.795,351.91 341.795,327.91 341.795,219.517 
		469.795,243.517 	"/>
</g>
<g>
	<path fill="#121310" stroke="#000000" stroke-miterlimit="3" d="M320.294,338.495l-3.228-176.592l3.228-2.28l123.469,22.93
		l14.111,21.754v161.371l-3.047,2.406L320.294,338.495z"/>
	<path fill="#FFFFFF" stroke="#000000" stroke-miterlimit="3" d="M409.919,226.943l-69.377-11.771l0.168-48.679l2.617-2.585
		l69.518,12.618l-3.004,2.714"/>
	<path fill="#323330" stroke="#000000" stroke-miterlimit="3" d="M357.458,174.659v38.047l-10.584-1.744v-38.11L357.458,174.659z"/>
	<path fill="#323330" stroke="#000000" stroke-miterlimit="3" d="M409.841,179.154l30.651,6.045l14.109,21.754V368.05
		l-137.578-26.907V162.27l23.687,4.224l-0.168,48.679v0.012l69.377,11.76L409.841,179.154z"/>
	<path fill="#FFFFFF" stroke="#000000" stroke-miterlimit="3" d="M341.054,166.665l68.443,12.489"/>
	<path fill="#FFFFFF" stroke="#000000" stroke-miterlimit="3" d="M440.492,185.199l2.893-2.438"/>
	<path fill="#FFFFFF" stroke="#000000" stroke-miterlimit="3" d="M454.603,206.953l3.078-2.593"/>
	<polygon fill="#F0DB4F" stroke="#000000" stroke-miterlimit="3" points="449.546,360.852 321.546,336.852 321.546,228.459 
		449.546,252.459 	"/>
	
		<text transform="matrix(1 0.1944 0 1 362.8418 333.8984)" fill="#323330" font-family="'Neutraface2Text-Bold'" font-size="77.5005">JS</text>
</g>
</svg>
